<svg id="_119NH" data-name="119NH" xmlns="http://www.w3.org/2000/svg" viewBox="0 0 1536.14263 1896.958"><g id="Background"><rect x="181.4803" y="135.53431" width="1251.78936" height="1687.34831" fill="#afafaf"/><polygon points="665.899 817.77 603.607 1084.737 885.135 1146.355 937.585 876.422 665.899 817.77" fill="#939393"/><polygon points="181.952 567.185 181.952 606.316 198.029 634.163 222.708 637.777 181.952 567.185" fill="#939393"/><polygon points="884.337 1822.883 906.929 1822.883 831.584 1692.38 824.651 1719.503 884.337 1822.883" fill="#939393"/><polygon points="834.423 1822.883 857.016 1822.883 816.266 1752.302 809.333 1779.425 834.423 1822.883" fill="#939393"/><polygon points="807.102 1822.883 800.949 1812.225 798.225 1822.883 807.102 1822.883" fill="#939393"/><polygon points="181.952 480.732 181.952 519.863 252.553 642.147 277.232 645.761 181.952 480.732" fill="#939393"/><polygon points="934.251 1822.883 956.843 1822.883 846.901 1632.457 839.968 1659.58 934.251 1822.883" fill="#939393"/><polygon points="181.952 394.279 181.952 433.41 307.076 650.132 331.755 653.746 181.952 394.279" fill="#939393"/><polygon points="984.164 1822.883 1006.757 1822.883 862.218 1572.535 855.285 1599.657 984.164 1822.883" fill="#939393"/><polygon points="440.759 1361.263 309.455 1152.789 295.375 1148.583 434.988 1390.399 440.759 1361.263" fill="#939393"/><polygon points="182.306 135.534 181.952 135.534 181.952 174.051 463.686 662.029 480.859 652.642 182.306 135.534" fill="#939393"/><polygon points="1133.905 1822.883 1156.497 1822.883 930.796 1431.956 913.621 1441.341 1133.905 1822.883" fill="#939393"/><polygon points="1083.991 1822.883 1106.584 1822.883 892.852 1452.689 885.919 1479.812 1083.991 1822.883" fill="#939393"/><polygon points="181.952 221.373 181.952 260.504 416.123 666.101 440.802 669.715 181.952 221.373" fill="#939393"/><polygon points="1034.078 1822.883 1056.67 1822.883 877.535 1512.612 870.602 1539.735 1034.078 1822.883" fill="#939393"/><polygon points="181.952 307.826 181.952 346.957 361.6 658.116 386.279 661.73 181.952 307.826" fill="#939393"/><polygon points="181.952 1816.657 185.546 1822.883 208.139 1822.883 181.952 1777.525 181.952 1816.657" fill="#939393"/><polygon points="181.952 1643.751 285.374 1822.883 307.966 1822.883 181.952 1604.62 181.952 1643.751" fill="#939393"/><polygon points="181.952 1730.204 235.46 1822.883 258.052 1822.883 181.952 1691.073 181.952 1730.204" fill="#939393"/><polygon points="1183.819 1822.883 1206.411 1822.883 968.739 1411.223 951.565 1420.607 1183.819 1822.883" fill="#939393"/><polygon points="232.22 135.534 209.628 135.534 501.626 641.29 518.798 631.903 232.22 135.534" fill="#939393"/><polygon points="481.788 135.534 459.196 135.534 656.635 477.509 662.803 449.062 481.788 135.534" fill="#939393"/><polygon points="1433.387 1822.883 1433.741 1822.883 1433.741 1784.366 1158.455 1307.556 1141.281 1316.941 1433.387 1822.883" fill="#939393"/><polygon points="428.008 1425.631 262.358 1138.718 235.056 1130.56 422.237 1454.766 428.008 1425.631" fill="#939393"/><polygon points="181.952 1518.167 181.952 1557.298 335.287 1822.883 349.316 1822.883 351.504 1811.839 181.952 1518.167" fill="#939393"/><polygon points="202.04 1120.695 181.952 1114.693 181.952 1125.033 409.486 1519.134 415.258 1489.999 202.04 1120.695" fill="#939393"/><polygon points="181.952 1431.714 181.952 1470.845 358.483 1776.606 364.255 1747.471 181.952 1431.714" fill="#939393"/><polygon points="181.952 1172.355 181.952 1211.486 396.735 1583.502 402.507 1554.367 181.952 1172.355" fill="#939393"/><polygon points="181.952 1258.808 181.952 1297.939 383.985 1647.87 389.756 1618.735 181.952 1258.808" fill="#939393"/><polygon points="181.952 1345.261 181.952 1384.392 371.234 1712.238 377.005 1683.103 181.952 1345.261" fill="#939393"/><polygon points="332.047 135.534 309.455 135.534 577.505 599.811 594.678 590.424 332.047 135.534" fill="#939393"/><polygon points="1283.646 1822.883 1306.238 1822.883 1044.626 1369.756 1027.451 1379.141 1283.646 1822.883" fill="#939393"/><polygon points="1433.741 786.062 1433.741 746.931 1139.243 236.845 1133.305 265.692 1433.741 786.062" fill="#939393"/><polygon points="1433.741 699.609 1433.741 660.478 1152.36 173.111 1146.423 201.959 1433.741 699.609" fill="#939393"/><polygon points="282.134 135.534 259.541 135.534 539.565 620.551 556.738 611.163 282.134 135.534" fill="#939393"/><polygon points="1233.732 1822.883 1256.325 1822.883 1006.682 1390.489 989.508 1399.874 1233.732 1822.883" fill="#939393"/><polygon points="1433.741 872.515 1433.741 833.384 1126.125 300.577 1120.188 329.425 1433.741 872.515" fill="#939393"/><polygon points="1433.741 613.156 1433.741 574.025 1180.579 135.534 1160.094 135.534 1159.54 138.226 1433.741 613.156" fill="#939393"/><polygon points="1433.741 314.666 1330.319 135.534 1307.727 135.534 1433.741 353.797 1433.741 314.666" fill="#939393"/><polygon points="1433.741 228.213 1380.233 135.534 1357.64 135.534 1433.741 267.345 1433.741 228.213" fill="#939393"/><polygon points="1433.741 141.761 1430.146 135.534 1407.554 135.534 1433.741 180.892 1433.741 141.761" fill="#939393"/><polygon points="1093.953 456.89 1342.564 887.498 1367.979 892.386 1099.89 428.043 1093.953 456.89" fill="#939393"/><polygon points="1433.741 526.703 1433.741 487.572 1230.492 135.534 1207.9 135.534 1433.741 526.703" fill="#939393"/><polygon points="1433.741 401.119 1280.406 135.534 1257.813 135.534 1433.741 440.25 1433.741 401.119" fill="#939393"/><polygon points="1398.713 898.297 1424.128 903.186 1113.008 364.31 1107.07 393.158 1398.713 898.297" fill="#939393"/><polygon points="581.615 135.534 559.023 135.534 683.891 351.812 690.059 323.364 581.615 135.534" fill="#939393"/><polygon points="1433.741 1650.591 1433.741 1611.46 1260.255 1310.973 1235.006 1306.372 1433.741 1650.591" fill="#939393"/><polygon points="631.529 135.534 608.936 135.534 697.519 288.963 703.687 260.516 631.529 135.534" fill="#939393"/><polygon points="1433.741 1564.138 1433.741 1525.007 1316.037 1321.137 1290.788 1316.536 1433.741 1564.138" fill="#939393"/><polygon points="1179.224 1296.207 1433.741 1737.044 1433.741 1697.913 1204.473 1300.808 1179.224 1296.207 1179.224 1296.207" fill="#939393"/><polygon points="531.702 135.534 509.109 135.534 670.263 414.66 676.431 386.213 531.702 135.534" fill="#939393"/><polygon points="1080.836 520.623 1286.416 876.698 1311.83 881.586 1086.773 491.776 1080.836 520.623" fill="#939393"/><polygon points="1383.473 1822.883 1406.065 1822.883 1120.512 1328.29 1103.338 1337.674 1383.473 1822.883" fill="#939393"/><polygon points="431.874 135.534 409.282 135.534 643.007 540.358 649.175 511.91 431.874 135.534" fill="#939393"/><polygon points="1333.559 1822.883 1356.152 1822.883 1082.569 1349.023 1065.394 1358.407 1333.559 1822.883" fill="#939393"/><polygon points="381.961 135.534 359.368 135.534 615.445 579.071 632.617 569.684 381.961 135.534" fill="#939393"/><polygon points="1071.252 567.185 1164.085 751.268 1230.267 865.899 1255.682 870.787 1073.656 555.509 1071.252 567.185" fill="#939393"/><polygon points="1433.741 1391.232 1433.741 1352.101 1427.601 1341.466 1402.352 1336.865 1433.741 1391.232" fill="#939393"/><polygon points="708.764 135.534 724.774 163.266 730.788 135.534 708.764 135.534" fill="#939393"/><polygon points="1433.741 1477.685 1433.741 1438.554 1371.819 1331.301 1346.57 1326.701 1433.741 1477.685" fill="#939393"/><polygon points="681.442 135.534 658.85 135.534 711.146 226.114 717.315 197.667 681.442 135.534" fill="#939393"/></g><g id="Aesthetic"><rect x="396.95994" y="548.81306" width="4.44944" height="32.66699" transform="translate(377.98511 158.23691) rotate(12.06857)" fill="#fff"/><rect x="404.01399" y="550.32127" width="4.44944" height="32.66699" transform="translate(378.45635 156.79537) rotate(12.06857)" fill="#fff"/><rect x="411.06804" y="551.82948" width="4.44944" height="32.66699" transform="translate(378.9276 155.35383) rotate(12.06857)" fill="#fff"/><rect x="418.12209" y="553.33769" width="4.44944" height="32.66699" transform="translate(379.39885 153.91229) rotate(12.06857)" fill="#fff"/><rect x="425.17614" y="554.8459" width="4.44944" height="32.66699" transform="translate(379.8701 152.47075) rotate(12.06857)" fill="#fff"/><rect x="432.2302" y="556.35411" width="4.44944" height="32.66699" transform="translate(380.34135 151.0292) rotate(12.06857)" fill="#fff"/><rect x="439.28425" y="557.86232" width="4.44944" height="32.66699" transform="translate(380.81259 149.58766) rotate(12.06857)" fill="#fff"/><rect x="446.3383" y="559.37053" width="4.44944" height="32.66699" transform="matrix(0.9779, 0.20908, -0.20908, 0.9779, 381.28384, 148.14612)" fill="#fff"/><rect x="453.39235" y="560.87874" width="4.44944" height="32.66699" transform="translate(381.75509 146.70458) rotate(12.06857)" fill="#fff"/><rect x="460.4464" y="562.38695" width="4.44944" height="32.66699" transform="translate(382.22634 145.26304) rotate(12.06857)" fill="#fff"/><rect x="467.50045" y="563.89516" width="4.44944" height="32.66699" transform="translate(382.69758 143.8215) rotate(12.06857)" fill="#fff"/><rect x="474.5545" y="565.40337" width="4.44944" height="32.66699" transform="translate(383.16883 142.37995) rotate(12.06857)" fill="#fff"/><rect x="481.60856" y="566.91158" width="4.44944" height="32.66699" transform="translate(383.64008 140.93841) rotate(12.06857)" fill="#fff"/><rect x="488.66261" y="568.41979" width="4.44944" height="32.66699" transform="translate(384.11133 139.49687) rotate(12.06857)" fill="#fff"/><rect x="495.71666" y="569.928" width="4.44944" height="32.66699" transform="translate(384.58258 138.05533) rotate(12.06857)" fill="#fff"/><rect x="502.77071" y="571.43621" width="4.44944" height="32.66699" transform="translate(385.05382 136.61379) rotate(12.06857)" fill="#fff"/><rect x="509.82476" y="572.94442" width="4.44944" height="32.66699" transform="translate(385.52507 135.17225) rotate(12.06857)" fill="#fff"/><rect x="516.87881" y="574.45263" width="4.44944" height="32.66699" transform="translate(385.99632 133.7307) rotate(12.06857)" fill="#fff"/><rect x="523.93286" y="575.96084" width="4.44944" height="32.66699" transform="translate(386.46757 132.28916) rotate(12.06857)" fill="#fff"/><rect x="530.98692" y="577.46905" width="4.44944" height="32.66699" transform="translate(386.93882 130.84762) rotate(12.06857)" fill="#fff"/><rect x="538.04097" y="578.97726" width="4.44944" height="32.66699" transform="translate(387.41006 129.40608) rotate(12.06857)" fill="#fff"/><rect x="545.09502" y="580.48547" width="4.44944" height="32.66699" transform="translate(387.88131 127.96454) rotate(12.06857)" fill="#fff"/><rect x="552.14907" y="581.99368" width="4.44944" height="32.66699" transform="translate(388.35256 126.523) rotate(12.06857)" fill="#fff"/><rect x="559.20312" y="583.50189" width="4.44944" height="32.66699" transform="translate(388.82381 125.08145) rotate(12.06857)" fill="#fff"/><rect x="566.25717" y="585.0101" width="4.44944" height="32.66699" transform="translate(389.29505 123.63991) rotate(12.06857)" fill="#fff"/><rect x="573.31122" y="586.51831" width="4.44944" height="32.66699" transform="translate(389.7663 122.19837) rotate(12.06857)" fill="#fff"/><rect x="580.36527" y="588.02652" width="4.44944" height="32.66699" transform="translate(390.23755 120.75683) rotate(12.06857)" fill="#fff"/><rect x="587.41933" y="589.53473" width="4.44944" height="32.66699" transform="translate(390.7088 119.31529) rotate(12.06857)" fill="#fff"/><rect x="594.47338" y="591.04294" width="4.44944" height="32.66699" transform="translate(391.18005 117.87375) rotate(12.06857)" fill="#fff"/><rect x="601.52743" y="592.55116" width="4.44944" height="32.66699" transform="translate(391.65129 116.4322) rotate(12.06857)" fill="#fff"/><rect x="608.58148" y="594.05937" width="4.44944" height="32.66699" transform="translate(392.12254 114.99066) rotate(12.06857)" fill="#fff"/><rect x="615.63553" y="595.56758" width="4.44944" height="32.66699" transform="translate(392.59379 113.54912) rotate(12.06857)" fill="#fff"/><rect x="622.68958" y="597.07579" width="4.44944" height="32.66699" transform="translate(393.06504 112.10758) rotate(12.06857)" fill="#fff"/><rect x="629.74363" y="598.584" width="4.44944" height="32.66699" transform="translate(393.53629 110.66604) rotate(12.06857)" fill="#fff"/><rect x="636.79769" y="600.09221" width="4.44944" height="32.66699" transform="translate(394.00753 109.2245) rotate(12.06857)" fill="#fff"/><rect x="643.85174" y="601.60042" width="4.44944" height="32.66699" transform="translate(394.47878 107.78295) rotate(12.06857)" fill="#fff"/><rect x="650.90579" y="603.10863" width="4.44944" height="32.66699" transform="translate(394.95003 106.34141) rotate(12.06857)" fill="#fff"/><rect x="657.95984" y="604.61684" width="4.44944" height="32.66699" transform="translate(395.42128 104.89987) rotate(12.06857)" fill="#fff"/><rect x="665.01389" y="606.12505" width="4.44944" height="32.66699" transform="translate(395.89252 103.45833) rotate(12.06857)" fill="#fff"/><rect x="672.06794" y="607.63326" width="4.44944" height="32.66699" transform="translate(396.36377 102.01679) rotate(12.06857)" fill="#fff"/><rect x="679.12199" y="609.14147" width="4.44944" height="32.66699" transform="translate(396.83502 100.57525) rotate(12.06857)" fill="#fff"/><rect x="686.17605" y="610.64968" width="4.44944" height="32.66699" transform="translate(397.30627 99.1337) rotate(12.06857)" fill="#fff"/><rect x="693.2301" y="612.15789" width="4.44944" height="32.66699" transform="translate(397.77752 97.69216) rotate(12.06857)" fill="#fff"/><rect x="700.28415" y="613.6661" width="4.44944" height="32.66699" transform="translate(398.24876 96.25062) rotate(12.06857)" fill="#fff"/><rect x="707.3382" y="615.17431" width="4.44944" height="32.66699" transform="translate(398.72001 94.80908) rotate(12.06857)" fill="#fff"/><rect x="714.39225" y="616.68252" width="4.44944" height="32.66699" transform="translate(399.19126 93.36754) rotate(12.06857)" fill="#fff"/><rect x="742.28786" y="614.29321" width="4.44944" height="40.32925" transform="translate(26.51604 729.94719) rotate(-32.57988)" fill="#fff"/><rect x="748.36624" y="610.40892" width="4.44944" height="40.32925" transform="translate(29.56411 732.60902) rotate(-32.57988)" fill="#fff"/><rect x="754.44462" y="606.52464" width="4.44944" height="40.32925" transform="translate(32.61219 735.27085) rotate(-32.57988)" fill="#fff"/><rect x="760.523" y="602.64036" width="4.44944" height="40.32925" transform="translate(35.66026 737.93268) rotate(-32.57988)" fill="#fff"/><rect x="766.60138" y="598.75608" width="4.44944" height="40.32925" transform="translate(38.70833 740.59451) rotate(-32.57988)" fill="#fff"/><rect x="772.67976" y="594.8718" width="4.44944" height="40.32925" transform="translate(41.7564 743.25634) rotate(-32.57988)" fill="#fff"/><rect x="778.75814" y="590.98752" width="4.44944" height="40.32925" transform="translate(44.80448 745.91817) rotate(-32.57988)" fill="#fff"/><rect x="784.83652" y="587.10324" width="4.44944" height="40.32925" transform="translate(47.85255 748.58) rotate(-32.57988)" fill="#fff"/><rect x="790.9149" y="583.21896" width="4.44944" height="40.32925" transform="translate(50.90062 751.24184) rotate(-32.57988)" fill="#fff"/><rect x="796.99328" y="579.33468" width="4.44944" height="40.32925" transform="translate(53.94869 753.90367) rotate(-32.57988)" fill="#fff"/><rect x="803.07166" y="575.4504" width="4.44944" height="40.32925" transform="translate(56.99677 756.5655) rotate(-32.57988)" fill="#fff"/><rect x="809.15004" y="571.56612" width="4.44944" height="40.32925" transform="translate(60.04484 759.22733) rotate(-32.57988)" fill="#fff"/><rect x="815.22842" y="567.68184" width="4.44944" height="40.32925" transform="translate(63.09291 761.88916) rotate(-32.57988)" fill="#fff"/><rect x="821.3068" y="563.79756" width="4.44944" height="40.32925" transform="translate(66.14098 764.55099) rotate(-32.57988)" fill="#fff"/><rect x="827.38518" y="559.91328" width="4.44944" height="40.32925" transform="matrix(0.84264, -0.53847, 0.53847, 0.84264, 69.18906, 767.21282)" fill="#fff"/><rect x="833.46356" y="556.029" width="4.44944" height="40.32925" transform="translate(72.23713 769.87465) rotate(-32.57988)" fill="#fff"/><rect x="722.89681" y="1047.32859" width="4.44944" height="31.73183" transform="translate(407.7817 2447.0342) rotate(-119.49753)" fill="#fff"/><rect x="719.34499" y="1041.05014" width="4.44944" height="31.73183" transform="translate(407.94563 2434.57291) rotate(-119.49753)" fill="#fff"/><rect x="715.79317" y="1034.77169" width="4.44944" height="31.73183" transform="translate(408.10957 2422.11162) rotate(-119.49753)" fill="#fff"/><rect x="712.24135" y="1028.49324" width="4.44944" height="31.73183" transform="translate(408.2735 2409.65033) rotate(-119.49753)" fill="#fff"/><rect x="708.68953" y="1022.2148" width="4.44944" height="31.73183" transform="translate(408.43743 2397.18903) rotate(-119.49753)" fill="#fff"/><rect x="705.13771" y="1015.93635" width="4.44944" height="31.73183" transform="translate(408.60136 2384.72774) rotate(-119.49753)" fill="#fff"/><rect x="701.58589" y="1009.6579" width="4.44944" height="31.73183" transform="translate(408.76529 2372.26645) rotate(-119.49753)" fill="#fff"/><rect x="698.03408" y="1003.37945" width="4.44944" height="31.73183" transform="translate(408.92922 2359.80516) rotate(-119.49753)" fill="#fff"/><rect x="694.48226" y="997.101" width="4.44944" height="31.73183" transform="translate(409.09316 2347.34387) rotate(-119.49753)" fill="#fff"/><rect x="690.93044" y="990.82255" width="4.44944" height="31.73183" transform="translate(409.25709 2334.88258) rotate(-119.49753)" fill="#fff"/><rect x="687.37862" y="984.5441" width="4.44944" height="31.73183" transform="translate(409.42102 2322.42129) rotate(-119.49753)" fill="#fff"/><rect x="683.8268" y="978.26565" width="4.44944" height="31.73183" transform="translate(409.58495 2309.96) rotate(-119.49753)" fill="#fff"/><rect x="680.27498" y="971.9872" width="4.44944" height="31.73183" transform="translate(409.74888 2297.4987) rotate(-119.49753)" fill="#fff"/><rect x="676.72316" y="965.70875" width="4.44944" height="31.73183" transform="translate(409.91281 2285.03741) rotate(-119.49753)" fill="#fff"/><rect x="673.17134" y="959.43031" width="4.44944" height="31.73183" transform="translate(410.07675 2272.57612) rotate(-119.49753)" fill="#fff"/><rect x="669.61952" y="953.15186" width="4.44944" height="31.73183" transform="translate(410.24068 2260.11483) rotate(-119.49753)" fill="#fff"/><rect x="215.39512" y="933.18616" width="4.44944" height="29.68374" transform="translate(-198.0256 468.92938) rotate(-30.33618)" fill="#fff"/><rect x="221.62091" y="929.54283" width="4.44944" height="29.68374" transform="translate(-195.33299 471.575) rotate(-30.33618)" fill="#fff"/><rect x="227.8467" y="925.89949" width="4.44944" height="29.68374" transform="translate(-192.64039 474.22062) rotate(-30.33618)" fill="#fff"/><rect x="234.07249" y="922.25616" width="4.44944" height="29.68374" transform="translate(-189.94778 476.86624) rotate(-30.33618)" fill="#fff"/><rect x="240.29828" y="918.61282" width="4.44944" height="29.68374" transform="translate(-187.25518 479.51186) rotate(-30.33618)" fill="#fff"/><rect x="246.52407" y="914.96949" width="4.44944" height="29.68374" transform="translate(-184.56258 482.15748) rotate(-30.33618)" fill="#fff"/><rect x="252.74986" y="911.32616" width="4.44944" height="29.68374" transform="translate(-181.86997 484.8031) rotate(-30.33618)" fill="#fff"/><rect x="258.97565" y="907.68282" width="4.44944" height="29.68374" transform="translate(-179.17737 487.44872) rotate(-30.33618)" fill="#fff"/><rect x="265.20144" y="904.03949" width="4.44944" height="29.68374" transform="matrix(0.86308, -0.50507, 0.50507, 0.86308, -176.48476, 490.09434)" fill="#fff"/><rect x="271.42723" y="900.39616" width="4.44944" height="29.68374" transform="translate(-173.79216 492.73996) rotate(-30.33618)" fill="#fff"/><rect x="277.65302" y="896.75282" width="4.44944" height="29.68374" transform="translate(-171.09956 495.38558) rotate(-30.33618)" fill="#fff"/><rect x="283.87881" y="893.10949" width="4.44944" height="29.68374" transform="translate(-168.40695 498.03119) rotate(-30.33618)" fill="#fff"/><rect x="290.10459" y="889.46615" width="4.44944" height="29.68374" transform="matrix(0.86308, -0.50507, 0.50507, 0.86308, -165.71435, 500.67681)" fill="#fff"/><rect x="296.33038" y="885.82282" width="4.44944" height="29.68374" transform="translate(-163.02174 503.32243) rotate(-30.33618)" fill="#fff"/><rect x="302.55617" y="882.17949" width="4.44944" height="29.68374" transform="translate(-160.32914 505.96805) rotate(-30.33618)" fill="#fff"/><rect x="308.78196" y="878.53615" width="4.44944" height="29.68374" transform="translate(-157.63654 508.61367) rotate(-30.33618)" fill="#fff"/><rect x="322.32127" y="442.54509" width="4.44944" height="40.32925" transform="translate(857.01467 201.81009) rotate(64.91462)" fill="#fff"/><rect x="325.37955" y="449.07818" width="4.44944" height="40.32925" transform="translate(864.69321 202.80354) rotate(64.91462)" fill="#fff"/><rect x="328.43784" y="455.61127" width="4.44944" height="40.32925" transform="translate(872.37175 203.79698) rotate(64.91462)" fill="#fff"/><rect x="331.49613" y="462.14435" width="4.44944" height="40.32925" transform="translate(880.05028 204.79042) rotate(64.91462)" fill="#fff"/><rect x="334.55442" y="468.67744" width="4.44944" height="40.32925" transform="translate(887.72882 205.78387) rotate(64.91462)" fill="#fff"/><rect x="337.61271" y="475.21052" width="4.44944" height="40.32925" transform="translate(895.40736 206.77731) rotate(64.91462)" fill="#fff"/><rect x="340.67099" y="481.74361" width="4.44944" height="40.32925" transform="translate(903.08589 207.77075) rotate(64.91462)" fill="#fff"/><rect x="343.72928" y="488.2767" width="4.44944" height="40.32925" transform="translate(910.76443 208.7642) rotate(64.91462)" fill="#fff"/><rect x="346.78757" y="494.80978" width="4.44944" height="40.32925" transform="translate(918.44297 209.75764) rotate(64.91462)" fill="#fff"/><rect x="349.84586" y="501.34287" width="4.44944" height="40.32925" transform="translate(926.1215 210.75108) rotate(64.91462)" fill="#fff"/><rect x="352.90415" y="507.87596" width="4.44944" height="40.32925" transform="translate(933.80004 211.74453) rotate(64.91462)" fill="#fff"/><rect x="355.96244" y="514.40904" width="4.44944" height="40.32925" transform="translate(941.47858 212.73797) rotate(64.91462)" fill="#fff"/><rect x="359.02072" y="520.94213" width="4.44944" height="40.32925" transform="translate(949.15712 213.73141) rotate(64.91462)" fill="#fff"/><rect x="362.07901" y="527.47521" width="4.44944" height="40.32925" transform="translate(956.83565 214.72486) rotate(64.91462)" fill="#fff"/><rect x="365.1373" y="534.0083" width="4.44944" height="40.32925" transform="translate(964.51419 215.7183) rotate(64.91462)" fill="#fff"/><rect x="368.19559" y="540.54139" width="4.44944" height="40.32925" transform="translate(972.19273 216.71174) rotate(64.91462)" fill="#fff"/><rect x="338.98095" y="858.0185" width="4.44944" height="30.0671" transform="translate(441.08118 177.16459) rotate(12.06857)" fill="#fff"/><rect x="346.035" y="859.52671" width="4.44944" height="30.0671" transform="translate(441.55242 175.72304) rotate(12.06857)" fill="#fff"/><rect x="353.08905" y="861.03492" width="4.44944" height="30.0671" transform="translate(442.02367 174.2815) rotate(12.06857)" fill="#fff"/><rect x="360.1431" y="862.54313" width="4.44944" height="30.0671" transform="translate(442.49492 172.83996) rotate(12.06857)" fill="#fff"/><rect x="367.19715" y="864.05134" width="4.44944" height="30.0671" transform="translate(442.96617 171.39842) rotate(12.06857)" fill="#fff"/><rect x="374.2512" y="865.55955" width="4.44944" height="30.0671" transform="translate(443.43742 169.95688) rotate(12.06857)" fill="#fff"/><rect x="381.30526" y="867.06776" width="4.44944" height="30.0671" transform="translate(443.90866 168.51534) rotate(12.06857)" fill="#fff"/><rect x="388.35931" y="868.57597" width="4.44944" height="30.0671" transform="translate(444.37991 167.0738) rotate(12.06857)" fill="#fff"/><rect x="395.41336" y="870.08418" width="4.44944" height="30.0671" transform="translate(444.85116 165.63225) rotate(12.06857)" fill="#fff"/><rect x="402.46741" y="871.59239" width="4.44944" height="30.0671" transform="translate(445.32241 164.19071) rotate(12.06857)" fill="#fff"/><rect x="409.52146" y="873.10061" width="4.44944" height="30.0671" transform="translate(445.79365 162.74917) rotate(12.06857)" fill="#fff"/><rect x="416.57551" y="874.60882" width="4.44944" height="30.0671" transform="translate(446.2649 161.30763) rotate(12.06857)" fill="#fff"/><rect x="423.62956" y="876.11703" width="4.44944" height="30.0671" transform="translate(446.73615 159.86609) rotate(12.06857)" fill="#fff"/><rect x="430.68361" y="877.62524" width="4.44944" height="30.0671" transform="translate(447.2074 158.42455) rotate(12.06857)" fill="#fff"/><rect x="437.73767" y="879.13345" width="4.44944" height="30.0671" transform="translate(447.67865 156.983) rotate(12.06857)" fill="#fff"/><rect x="444.79172" y="880.64166" width="4.44944" height="30.0671" transform="translate(448.14989 155.54146) rotate(12.06857)" fill="#fff"/><rect x="451.84577" y="882.14987" width="4.44944" height="30.0671" transform="translate(448.62114 154.09992) rotate(12.06857)" fill="#fff"/><rect x="458.89982" y="883.65808" width="4.44944" height="30.0671" transform="translate(449.09239 152.65838) rotate(12.06857)" fill="#fff"/><rect x="465.95387" y="885.16629" width="4.44944" height="30.0671" transform="translate(449.56364 151.21684) rotate(12.06857)" fill="#fff"/><rect x="473.00792" y="886.6745" width="4.44944" height="30.0671" transform="translate(450.03488 149.7753) rotate(12.06857)" fill="#fff"/><rect x="480.06197" y="888.18271" width="4.44944" height="30.0671" transform="translate(450.50613 148.33376) rotate(12.06857)" fill="#fff"/><rect x="487.11603" y="889.69092" width="4.44944" height="30.0671" transform="translate(450.97738 146.89221) rotate(12.06857)" fill="#fff"/><rect x="494.17008" y="891.19913" width="4.44944" height="30.0671" transform="translate(451.44863 145.45067) rotate(12.06857)" fill="#fff"/><rect x="501.22413" y="892.70734" width="4.44944" height="30.0671" transform="translate(451.91988 144.00913) rotate(12.06857)" fill="#fff"/><rect x="508.27818" y="894.21555" width="4.44944" height="30.0671" transform="translate(452.39112 142.56759) rotate(12.06857)" fill="#fff"/><rect x="515.33223" y="895.72376" width="4.44944" height="30.0671" transform="translate(452.86237 141.12605) rotate(12.06857)" fill="#fff"/><rect x="522.38628" y="897.23197" width="4.44944" height="30.0671" transform="translate(453.33362 139.68451) rotate(12.06857)" fill="#fff"/><rect x="529.44033" y="898.74018" width="4.44944" height="30.0671" transform="translate(453.80487 138.24296) rotate(12.06857)" fill="#fff"/><rect x="536.49439" y="900.24839" width="4.44944" height="30.0671" transform="translate(454.27611 136.80142) rotate(12.06857)" fill="#fff"/><rect x="543.54844" y="901.7566" width="4.44944" height="30.0671" transform="translate(454.74736 135.35988) rotate(12.06857)" fill="#fff"/><rect x="550.60249" y="903.26481" width="4.44944" height="30.0671" transform="translate(455.21861 133.91834) rotate(12.06857)" fill="#fff"/><rect x="557.65654" y="904.77302" width="4.44944" height="30.0671" transform="translate(455.68986 132.4768) rotate(12.06857)" fill="#fff"/><rect x="564.71059" y="906.28123" width="4.44944" height="30.0671" transform="translate(456.16111 131.03526) rotate(12.06857)" fill="#fff"/><rect x="571.76464" y="907.78944" width="4.44944" height="30.0671" transform="translate(456.63235 129.59372) rotate(12.06857)" fill="#fff"/><rect x="578.81869" y="909.29765" width="4.44944" height="30.0671" transform="translate(457.1036 128.15217) rotate(12.06857)" fill="#fff"/><rect x="585.87275" y="910.80586" width="4.44944" height="30.0671" transform="translate(457.57485 126.71063) rotate(12.06857)" fill="#fff"/><rect x="592.9268" y="912.31407" width="4.44944" height="30.0671" transform="translate(458.0461 125.26909) rotate(12.06857)" fill="#fff"/><rect x="599.98085" y="913.82228" width="4.44944" height="30.0671" transform="translate(458.51734 123.82755) rotate(12.06857)" fill="#fff"/><rect x="607.0349" y="915.33049" width="4.44944" height="30.0671" transform="translate(458.98859 122.38601) rotate(12.06857)" fill="#fff"/><rect x="614.08895" y="916.8387" width="4.44944" height="30.0671" transform="translate(459.45984 120.94447) rotate(12.06857)" fill="#fff"/><rect x="621.143" y="918.34691" width="4.44944" height="30.0671" transform="translate(459.93109 119.50292) rotate(12.06857)" fill="#fff"/><rect x="628.19705" y="919.85512" width="4.44944" height="30.0671" transform="translate(460.40234 118.06138) rotate(12.06857)" fill="#fff"/><rect x="635.25111" y="921.36333" width="4.44944" height="30.0671" transform="translate(460.87358 116.61984) rotate(12.06857)" fill="#fff"/><rect x="703.13941" y="629.94943" width="4.44944" height="28.36659" transform="translate(1723.60497 304.31789) rotate(101.03548)" fill="#fff"/><rect x="701.75863" y="637.02953" width="4.44944" height="28.36659" transform="translate(1728.90906 314.10848) rotate(101.03548)" fill="#fff"/><rect x="700.37785" y="644.10963" width="4.44944" height="28.36659" transform="translate(1734.21316 323.89908) rotate(101.03548)" fill="#fff"/><rect x="698.99707" y="651.18972" width="4.44944" height="28.36659" transform="translate(1739.51725 333.68968) rotate(101.03548)" fill="#fff"/><rect x="697.61629" y="658.26982" width="4.44944" height="28.36659" transform="translate(1744.82134 343.48027) rotate(101.03548)" fill="#fff"/><rect x="696.2355" y="665.34992" width="4.44944" height="28.36659" transform="translate(1750.12543 353.27087) rotate(101.03548)" fill="#fff"/><rect x="694.85472" y="672.43002" width="4.44944" height="28.36659" transform="translate(1755.42952 363.06147) rotate(101.03548)" fill="#fff"/><rect x="693.47394" y="679.51011" width="4.44944" height="28.36659" transform="translate(1760.73361 372.85206) rotate(101.03548)" fill="#fff"/><rect x="692.09316" y="686.59021" width="4.44944" height="28.36659" transform="translate(1766.0377 382.64266) rotate(101.03548)" fill="#fff"/><rect x="690.71238" y="693.67031" width="4.44944" height="28.36659" transform="translate(1771.3418 392.43326) rotate(101.03548)" fill="#fff"/><rect x="689.33159" y="700.75041" width="4.44944" height="28.36659" transform="translate(1776.64589 402.22385) rotate(101.03548)" fill="#fff"/><rect x="687.95081" y="707.8305" width="4.44944" height="28.36659" transform="translate(1781.94998 412.01445) rotate(101.03548)" fill="#fff"/><rect x="686.57003" y="714.9106" width="4.44944" height="28.36659" transform="translate(1787.25407 421.80505) rotate(101.03548)" fill="#fff"/><rect x="685.18925" y="721.9907" width="4.44944" height="28.36659" transform="translate(1792.55816 431.59565) rotate(101.03548)" fill="#fff"/><rect x="683.80847" y="729.0708" width="4.44944" height="28.36659" transform="translate(1797.86225 441.38624) rotate(101.03548)" fill="#fff"/><rect x="682.42768" y="736.15089" width="4.44944" height="28.36659" transform="translate(1803.16635 451.17684) rotate(101.03548)" fill="#fff"/><rect x="681.0469" y="743.23099" width="4.44944" height="28.36659" transform="translate(1808.47044 460.96744) rotate(101.03548)" fill="#fff"/><rect x="679.66612" y="750.31109" width="4.44944" height="28.36659" transform="translate(1813.77453 470.75803) rotate(101.03548)" fill="#fff"/><rect x="678.28534" y="757.39119" width="4.44944" height="28.36659" transform="translate(1819.07862 480.54863) rotate(101.03548)" fill="#fff"/><rect x="676.90456" y="764.47128" width="4.44944" height="28.36659" transform="translate(1824.38271 490.33923) rotate(101.03548)" fill="#fff"/><rect x="675.52378" y="771.55138" width="4.44944" height="28.36659" transform="translate(1829.6868 500.12982) rotate(101.03548)" fill="#fff"/><rect x="674.14299" y="778.63148" width="4.44944" height="28.36659" transform="translate(1834.99089 509.92042) rotate(101.03548)" fill="#fff"/><rect x="672.76221" y="785.71158" width="4.44944" height="28.36659" transform="translate(1840.29499 519.71102) rotate(101.03548)" fill="#fff"/><rect x="671.38143" y="792.79167" width="4.44944" height="28.36659" transform="translate(1845.59908 529.50161) rotate(101.03548)" fill="#fff"/><rect x="670.00065" y="799.87177" width="4.44944" height="28.36659" transform="translate(1850.90317 539.29221) rotate(101.03548)" fill="#fff"/><rect x="668.61987" y="806.95187" width="4.44944" height="28.36659" transform="translate(1856.20726 549.08281) rotate(101.03548)" fill="#fff"/><rect x="667.23908" y="814.03197" width="4.44944" height="28.36659" transform="translate(1861.51135 558.8734) rotate(101.03548)" fill="#fff"/><rect x="665.8583" y="821.11206" width="4.44944" height="28.36659" transform="translate(1866.81544 568.664) rotate(101.03548)" fill="#fff"/><rect x="664.47752" y="828.19216" width="4.44944" height="28.36659" transform="translate(1872.11954 578.4546) rotate(101.03548)" fill="#fff"/><rect x="663.09674" y="835.27226" width="4.44944" height="28.36659" transform="translate(1877.42363 588.24519) rotate(101.03548)" fill="#fff"/><rect x="661.71596" y="842.35236" width="4.44944" height="28.36659" transform="translate(1882.72772 598.03579) rotate(101.03548)" fill="#fff"/><rect x="660.33517" y="849.43245" width="4.44944" height="28.36659" transform="translate(1888.03181 607.82639) rotate(101.03548)" fill="#fff"/><rect x="658.95439" y="856.51255" width="4.44944" height="28.36659" transform="translate(1893.3359 617.61698) rotate(101.03548)" fill="#fff"/><rect x="657.57361" y="863.59265" width="4.44944" height="28.36659" transform="translate(1898.63999 627.40758) rotate(101.03548)" fill="#fff"/><rect x="656.19283" y="870.67275" width="4.44944" height="28.36659" transform="translate(1903.94408 637.19818) rotate(101.03548)" fill="#fff"/><rect x="654.81205" y="877.75284" width="4.44944" height="28.36659" transform="translate(1909.24818 646.98877) rotate(101.03548)" fill="#fff"/><rect x="653.43127" y="884.83294" width="4.44944" height="28.36659" transform="translate(1914.55227 656.77937) rotate(101.03548)" fill="#fff"/><rect x="652.05048" y="891.91304" width="4.44944" height="28.36659" transform="translate(1919.85636 666.56997) rotate(101.03548)" fill="#fff"/><rect x="650.6697" y="898.99314" width="4.44944" height="28.36659" transform="translate(1925.16045 676.36056) rotate(101.03548)" fill="#fff"/><rect x="649.28892" y="906.07323" width="4.44944" height="28.36659" transform="translate(1930.46454 686.15116) rotate(101.03548)" fill="#fff"/><rect x="647.90814" y="913.15333" width="4.44944" height="28.36659" transform="translate(1935.76863 695.94176) rotate(101.03548)" fill="#fff"/><rect x="646.52736" y="920.23343" width="4.44944" height="28.36659" transform="translate(1941.07273 705.73235) rotate(101.03548)" fill="#fff"/><rect x="645.14657" y="927.31353" width="4.44944" height="28.36659" transform="translate(1946.37682 715.52295) rotate(101.03548)" fill="#fff"/><rect x="396.95315" y="562.388" width="4.44944" height="30.2532" transform="translate(1303.46959 549.66971) rotate(103.17385)" fill="#fff"/><rect x="395.30915" y="569.41165" width="4.44944" height="30.2532" transform="translate(1308.28972 559.89483) rotate(103.17385)" fill="#fff"/><rect x="393.66515" y="576.43529" width="4.44944" height="30.2532" transform="translate(1313.10985 570.11994) rotate(103.17385)" fill="#fff"/><rect x="392.02115" y="583.45894" width="4.44944" height="30.2532" transform="translate(1317.92997 580.34506) rotate(103.17385)" fill="#fff"/><rect x="390.37715" y="590.48259" width="4.44944" height="30.2532" transform="translate(1322.7501 590.57017) rotate(103.17385)" fill="#fff"/><rect x="388.73315" y="597.50623" width="4.44944" height="30.2532" transform="translate(1327.57022 600.79529) rotate(103.17385)" fill="#fff"/><rect x="387.08915" y="604.52988" width="4.44944" height="30.2532" transform="translate(1332.39035 611.02041) rotate(103.17385)" fill="#fff"/><rect x="385.44515" y="611.55352" width="4.44944" height="30.2532" transform="translate(1337.21048 621.24552) rotate(103.17385)" fill="#fff"/><rect x="383.80115" y="618.57717" width="4.44944" height="30.2532" transform="translate(1342.0306 631.47064) rotate(103.17385)" fill="#fff"/><rect x="382.15715" y="625.60082" width="4.44944" height="30.2532" transform="translate(1346.85073 641.69575) rotate(103.17385)" fill="#fff"/><rect x="380.51315" y="632.62446" width="4.44944" height="30.2532" transform="translate(1351.67086 651.92087) rotate(103.17385)" fill="#fff"/><rect x="378.86915" y="639.64811" width="4.44944" height="30.2532" transform="translate(1356.49098 662.14598) rotate(103.17385)" fill="#fff"/><rect x="377.22515" y="646.67175" width="4.44944" height="30.2532" transform="translate(1361.31111 672.3711) rotate(103.17385)" fill="#fff"/><rect x="375.58115" y="653.6954" width="4.44944" height="30.2532" transform="translate(1366.13124 682.59622) rotate(103.17385)" fill="#fff"/><rect x="373.93715" y="660.71905" width="4.44944" height="30.2532" transform="translate(1370.95136 692.82133) rotate(103.17385)" fill="#fff"/><rect x="372.29315" y="667.74269" width="4.44944" height="30.2532" transform="translate(1375.77149 703.04645) rotate(103.17385)" fill="#fff"/><rect x="370.64915" y="674.76634" width="4.44944" height="30.2532" transform="translate(1380.59162 713.27156) rotate(103.17385)" fill="#fff"/><rect x="369.00515" y="681.78998" width="4.44944" height="30.2532" transform="translate(1385.41174 723.49668) rotate(103.17385)" fill="#fff"/><rect x="367.36115" y="688.81363" width="4.44944" height="30.2532" transform="translate(1390.23187 733.72179) rotate(103.17385)" fill="#fff"/><rect x="365.71715" y="695.83728" width="4.44944" height="30.2532" transform="translate(1395.052 743.94691) rotate(103.17385)" fill="#fff"/><rect x="364.07315" y="702.86092" width="4.44944" height="30.2532" transform="translate(1399.87212 754.17203) rotate(103.17385)" fill="#fff"/><rect x="362.42915" y="709.88457" width="4.44944" height="30.2532" transform="translate(1404.69225 764.39714) rotate(103.17385)" fill="#fff"/><rect x="360.78515" y="716.90821" width="4.44944" height="30.2532" transform="translate(1409.51238 774.62226) rotate(103.17385)" fill="#fff"/><rect x="359.14115" y="723.93186" width="4.44944" height="30.2532" transform="translate(1414.3325 784.84737) rotate(103.17385)" fill="#fff"/><rect x="357.49715" y="730.95551" width="4.44944" height="30.2532" transform="translate(1419.15263 795.07249) rotate(103.17385)" fill="#fff"/><rect x="355.85315" y="737.97915" width="4.44944" height="30.2532" transform="translate(1423.97276 805.2976) rotate(103.17385)" fill="#fff"/><rect x="354.20915" y="745.0028" width="4.44944" height="30.2532" transform="translate(1428.79288 815.52272) rotate(103.17385)" fill="#fff"/><rect x="352.56515" y="752.02644" width="4.44944" height="30.2532" transform="translate(1433.61301 825.74783) rotate(103.17385)" fill="#fff"/><rect x="350.92115" y="759.05009" width="4.44944" height="30.2532" transform="translate(1438.43314 835.97295) rotate(103.17385)" fill="#fff"/><rect x="349.27715" y="766.07374" width="4.44944" height="30.2532" transform="translate(1443.25326 846.19807) rotate(103.17385)" fill="#fff"/><rect x="347.63315" y="773.09738" width="4.44944" height="30.2532" transform="translate(1448.07339 856.42318) rotate(103.17385)" fill="#fff"/><rect x="345.98915" y="780.12103" width="4.44944" height="30.2532" transform="translate(1452.89351 866.6483) rotate(103.17385)" fill="#fff"/><rect x="344.34515" y="787.14467" width="4.44944" height="30.2532" transform="translate(1457.71364 876.87341) rotate(103.17385)" fill="#fff"/><rect x="342.70115" y="794.16832" width="4.44944" height="30.2532" transform="translate(1462.53377 887.09853) rotate(103.17385)" fill="#fff"/><rect x="341.05715" y="801.19197" width="4.44944" height="30.2532" transform="translate(1467.35389 897.32364) rotate(103.17385)" fill="#fff"/><rect x="339.41315" y="808.21561" width="4.44944" height="30.2532" transform="translate(1472.17402 907.54876) rotate(103.17385)" fill="#fff"/><rect x="337.76915" y="815.23926" width="4.44944" height="30.2532" transform="translate(1476.99415 917.77388) rotate(103.17385)" fill="#fff"/><rect x="336.12515" y="822.2629" width="4.44944" height="30.2532" transform="translate(1481.81427 927.99899) rotate(103.17385)" fill="#fff"/><rect x="334.48115" y="829.28655" width="4.44944" height="30.2532" transform="translate(1486.6344 938.22411) rotate(103.17385)" fill="#fff"/><rect x="332.83715" y="836.3102" width="4.44944" height="30.2532" transform="translate(1491.45453 948.44922) rotate(103.17385)" fill="#fff"/><rect x="331.19315" y="843.33384" width="4.44944" height="30.2532" transform="translate(1496.27465 958.67434) rotate(103.17385)" fill="#fff"/><rect x="329.54915" y="850.35749" width="4.44944" height="30.2532" transform="translate(1501.09478 968.89945) rotate(103.17385)" fill="#fff"/><rect x="327.90515" y="857.38113" width="4.44944" height="30.2532" transform="translate(1505.91491 979.12457) rotate(103.17385)" fill="#fff"/></g><g id="Guidelines"><line x1="43.59583" y1="823.24217" x2="642.24752" y2="947.28712" fill="none" stroke="#ff0" stroke-miterlimit="10"/><line x1="46.87673" y1="807.19723" x2="645.52841" y2="931.24217" fill="none" stroke="lime" stroke-miterlimit="10"/><line x1="565.58459" y1="1861.23094" x2="741.40482" y2="1113.32083" fill="none" stroke="#ff0" stroke-miterlimit="10"/><line x1="550.6183" y1="1855.97251" x2="723.60707" y2="1110.08487" fill="none" stroke="lime" stroke-miterlimit="10"/><line x1="1502.14845" y1="1141.04813" x2="904.16181" y2="1013.83583" fill="none" stroke="#ff0" stroke-miterlimit="10"/><line x1="1498.78266" y1="1157.07548" x2="900.79602" y2="1029.86318" fill="none" stroke="lime" stroke-miterlimit="10"/><line x1="974.4104" y1="44.90299" x2="806.3405" y2="862.89394" fill="none" stroke="#ff0" stroke-miterlimit="10"/><line x1="989.53368" y1="49.69124" x2="823.0596" y2="862.89394" fill="none" stroke="lime" stroke-miterlimit="10"/><line x1="711.90632" y1="1896.85046" x2="877.15051" y2="1146.53276" fill="none" stroke="#ff0" stroke-miterlimit="10"/><line x1="1487.49926" y1="1272.79214" x2="889.51262" y2="1145.57985" fill="none" stroke="lime" stroke-miterlimit="10"/><line x1="841.63525" y1="1307.7955" x2="1050.97785" y2="1181.68038" fill="none" stroke="#ff0" stroke-miterlimit="10"/><line x1="1536.03859" y1="1010.44383" x2="938.05195" y2="883.23153" fill="none" stroke="#ff0" stroke-miterlimit="10"/><line x1="1098.08006" y1="65.19139" x2="931.60598" y2="878.39408" fill="none" stroke="lime" stroke-miterlimit="10"/><line x1="1085.31083" y1="914.55855" x2="964.01156" y2="723.18599" fill="none" stroke="#ff0" stroke-miterlimit="10"/><line x1="838.11393" y1="0.10063" x2="670.04402" y2="818.09158" fill="none" stroke="#ff0" stroke-miterlimit="10"/><line x1="67.24752" y1="696.55678" x2="665.8992" y2="820.60172" fill="none" stroke="lime" stroke-miterlimit="10"/><line x1="524.59583" y1="789.99498" x2="690.37111" y2="711.45566" fill="none" stroke="#ff0" stroke-miterlimit="10"/><line x1="0.10145" y1="961.09611" x2="598.75313" y2="1085.14105" fill="none" stroke="#ff0" stroke-miterlimit="10"/><line x1="435.40482" y1="1837.77026" x2="608.39358" y2="1091.88262" fill="none" stroke="lime" stroke-miterlimit="10"/><line x1="571.24752" y1="1244.7815" x2="456.20257" y2="1056.69161" fill="none" stroke="#ff0" stroke-miterlimit="10"/></g><g id="Physical"><polygon points="512.731 1070.175 598.233 1088.107 600.904 1092.089 584.731 1190.175 512.731 1070.175" fill="#fff" stroke="#000" stroke-miterlimit="10" stroke-width="2"/><polygon points="891.206 1148.699 1000.821 1173.995 866.259 1249.501 888.061 1150.735 891.206 1148.699" fill="#fff" stroke="#000" stroke-miterlimit="10" stroke-width="2"/><polygon points="953.697 784.062 941.87 872.962 943.327 875.698 1033.787 897.321 953.697 784.062" fill="#fff" stroke="#000" stroke-miterlimit="10" stroke-width="2"/><polygon points="677.023 766.669 596.933 800.849 662.121 816.904 665.724 814.929 677.023 766.669" fill="#fff" stroke="#000" stroke-miterlimit="10" stroke-width="2"/><polygon points="1247.023 852.22 1099.787 603.231 1197.786 111.793 1091.745 111.793 979.787 673.231 1127.023 922.22 1445.764 998.444 1445.764 893.724 1247.023 852.22" fill="#fff" stroke="#000" stroke-miterlimit="10" stroke-width="2"/><polygon points="914.337 1471.107 1166.742 1306.074 1435.652 1358.928 1435.652 1268.242 1083.742 1199.074 831.337 1364.107 717.27 1885.905 823.661 1885.905 914.337 1471.107" fill="#fff" stroke="#000" stroke-miterlimit="10" stroke-width="2"/><polygon points="410.259 1068.017 38.124 988.737 38.124 1092.876 292.259 1147.017 423.315 1349.265 318.111 1864.062 419.967 1864.062 541.315 1270.265 410.259 1068.017" fill="#fff" stroke="#000" stroke-miterlimit="10" stroke-width="2"/><polygon points="733.092 42.22 620.641 551.287 385.776 667.602 86.663 602.364 86.663 698.647 461.776 776.602 696.641 660.287 833.169 42.22 733.092 42.22" fill="#fff" stroke="#000" stroke-miterlimit="10" stroke-width="2"/><polygon points="819.203 813.59 975.742 48.692 985.45 48.692 827.697 814.399 823.382 822.624 820.146 821.815 819.203 813.59" fill="#fff" stroke="#000" stroke-miterlimit="10" stroke-width="2"/><polygon points="969 1032.422 1440.371 1133.276 1439.832 1139.748 966.304 1038.894 961.18 1036.062 960.472 1032.826 962.292 1031.512 969 1032.422" fill="#fff" stroke="#000" stroke-miterlimit="10" stroke-width="2"/><polygon points="717.674 1156.197 559.113 1838.984 565.585 1839.793 725.764 1159.433 726.843 1152.961 723.944 1149.051 720.439 1150.602 717.674 1156.197" fill="#fff" stroke="#000" stroke-miterlimit="10" stroke-width="2"/><polygon points="585 924.017 105.27 823.703 105.27 830.175 582.573 929.68 588.371 930.085 589.989 928.062 589.18 925.77 585 924.017" fill="#fff" stroke="#000" stroke-miterlimit="10" stroke-width="2"/></g><g id="Anchors"><circle id="Island_Corner_3" data-name="Island Corner 3" cx="941.69695" cy="874.97251" r="2.5618" fill="red"/><circle id="Island_Corner_4" data-name="Island Corner 4" cx="889.85426" cy="1150.53431" r="2.5618" fill="red"/><circle id="Island_Corner_1" data-name="Island Corner 1" cx="599.56212" cy="1090.73656" r="2.5618" fill="red"/><circle id="Island_Corner_2" data-name="Island Corner 2" cx="664.41606" cy="815.74779" r="2.5618" fill="red"/></g></svg>